# xmcd
# 
# Track frame offsets:
#     150
#     13500
#     27683
#     56843
#     77500
#     98095
#     123200
#     143555
#     162043
#     180675
#     200325
#     224375
#     239438
#     258663
# 
# Disc length: 3541
# 
# Revision: 15
# Processed by: cddbd v1.5.2PL0 Copyright (c) Steve Scherf et al.
# Submitted via: BonkEnc v1.0.6
# 
DISCID=bd0dd30e
DTITLE=YMO - YMO GO HOME! [CD2]
DYEAR=1999
DGENRE=Techno
TTITLE0=MULTIPLIES
TTITLE1=TIGHTEN UP (A&M MIX)
TTITLE2=SIMOON
TTITLE3=CITIZENS OF SCIENCE
TTITLE4=CAMOUFLAGE
TTITLE5=GRADATED GREY
TTITLE6=PURE JAM
TTITLE7=LOTUS LOVE
TTITLE8=君に胸キュン。−浮気なヴァカンス−
TTITLE9=SHADOWS ON THE GROUND
TTITLE10=BE A SUPERMAN
TTITLE11=WHERE HAVE ALL THE FLOWERS GONE? (ACOUSTIC VERSION)
TTITLE12=TECHNOPOLIS
TTITLE13=THE END OF ASIA
EXTD=YEAR: 1999
EXTT0=Music by Elmer Bernstein
EXTT1=Words by Billy Buttier\nMusic by Archie Bell
EXTT2=Words by Chris Mosdell\nMusic by Haruomi Hosono
EXTT3=Words by Chris Mosdell\nMusic by Ryuichi Sakamoto
EXTT4=Words by Yukihiro Takahashi, Peter Barakan\nMusic by Yukihiro Takahashi
EXTT5=Words and Music by Haruomi Hosono
EXTT6=Words and Music by Yukihiro Takahashi
EXTT7=Words and Music by Haruomi Hosono
EXTT8=Words by Takashi Matsumoto\nMusic by YMO
EXTT9=Words by Ryuichi Sakamoto, Yukihiro Takahashi, Peter Barakan\nMusic by Ryuichi Sakamoto, Yukih
EXTT10=Words and Music by Ryuichi Sakamoto, Yukihiro Takahashi
EXTT11=Words and Music by Peter Seeger
EXTT12=Music by Ryuichi Sakamoto
EXTT13=Music by Ryuichi Sakamoto
PLAYORDER=
